<mxfile host="Electron" modified="2024-04-05T09:50:50.771Z" agent="Mozilla/5.0 (X11; Linux x86_64) AppleWebKit/537.36 (KHTML, like Gecko) draw.io/24.0.4 Chrome/120.0.6099.109 Electron/28.1.0 Safari/537.36" etag="9E01-rvMBHI-QW4Qz53Y" version="24.0.4" type="device" pages="2">
  <diagram name="spring-vue-mysql" id="zCNkbqzIXlzTL-aTp2zY">
    <mxGraphModel dx="1804" dy="658" grid="1" gridSize="10" guides="1" tooltips="1" connect="1" arrows="1" fold="1" page="1" pageScale="1" pageWidth="850" pageHeight="1100" math="0" shadow="0">
      <root>
        <mxCell id="0" />
        <mxCell id="1" parent="0" />
        <mxCell id="ey4TMwuQdy21DPPwtNRA-20" value="" style="triangle;whiteSpace=wrap;html=1;rotation=90;fillColor=#3CB324;strokeColor=#82b366;" parent="1" vertex="1">
          <mxGeometry x="230" y="188.69" width="87.5" height="120.31" as="geometry" />
        </mxCell>
        <mxCell id="ey4TMwuQdy21DPPwtNRA-6" value="" style="image;aspect=fixed;html=1;points=[];align=center;fontSize=12;image=img/lib/azure2/databases/Instance_Pools.svg;" parent="1" vertex="1">
          <mxGeometry x="570" y="184" width="60" height="59.08" as="geometry" />
        </mxCell>
        <mxCell id="ey4TMwuQdy21DPPwtNRA-7" value="" style="image;aspect=fixed;html=1;points=[];align=center;fontSize=12;image=img/lib/azure2/databases/Azure_Database_MySQL_Server.svg;" parent="1" vertex="1">
          <mxGeometry x="670" y="184" width="84" height="112" as="geometry" />
        </mxCell>
        <mxCell id="ey4TMwuQdy21DPPwtNRA-8" value="" style="image;aspect=fixed;html=1;points=[];align=center;fontSize=12;image=img/lib/azure2/compute/Azure_Spring_Cloud.svg;" parent="1" vertex="1">
          <mxGeometry x="440" y="201.69" width="94.31" height="94.31" as="geometry" />
        </mxCell>
        <mxCell id="ey4TMwuQdy21DPPwtNRA-13" value="" style="points=[[0.35,0,0],[0.98,0.51,0],[1,0.71,0],[0.67,1,0],[0,0.795,0],[0,0.65,0]];verticalLabelPosition=bottom;sketch=0;html=1;verticalAlign=top;aspect=fixed;align=center;pointerEvents=1;shape=mxgraph.cisco19.user;fillColor=#005073;strokeColor=none;" parent="1" vertex="1">
          <mxGeometry x="-10" y="196" width="100" height="100" as="geometry" />
        </mxCell>
        <mxCell id="ey4TMwuQdy21DPPwtNRA-17" value="" style="triangle;whiteSpace=wrap;html=1;rotation=90;fillColor=#282B28;strokeColor=#82b366;" parent="1" vertex="1">
          <mxGeometry x="239.2" y="198.83999999999997" width="67.5" height="80" as="geometry" />
        </mxCell>
        <mxCell id="ey4TMwuQdy21DPPwtNRA-19" value="" style="triangle;whiteSpace=wrap;html=1;rotation=90;strokeColor=none;" parent="1" vertex="1">
          <mxGeometry x="252.01999999999998" y="203.53000000000003" width="45.62" height="48.75" as="geometry" />
        </mxCell>
        <mxCell id="ey4TMwuQdy21DPPwtNRA-21" value="" style="shape=flexArrow;endArrow=classic;html=1;rounded=0;startArrow=block;strokeWidth=2;fillColor=#d5e8d4;strokeColor=#82b366;" parent="1" edge="1">
          <mxGeometry width="50" height="50" relative="1" as="geometry">
            <mxPoint x="110" y="260" as="sourcePoint" />
            <mxPoint x="220" y="260" as="targetPoint" />
          </mxGeometry>
        </mxCell>
        <mxCell id="ey4TMwuQdy21DPPwtNRA-22" value="" style="shape=flexArrow;endArrow=classic;html=1;rounded=0;startArrow=block;strokeWidth=2;fillColor=#d5e8d4;strokeColor=#82b366;" parent="1" edge="1">
          <mxGeometry width="50" height="50" relative="1" as="geometry">
            <mxPoint x="315" y="260" as="sourcePoint" />
            <mxPoint x="425" y="260" as="targetPoint" />
          </mxGeometry>
        </mxCell>
        <mxCell id="ey4TMwuQdy21DPPwtNRA-23" value="" style="shape=flexArrow;endArrow=classic;html=1;rounded=0;startArrow=block;strokeWidth=2;fillColor=#d5e8d4;strokeColor=#82b366;" parent="1" edge="1">
          <mxGeometry width="50" height="50" relative="1" as="geometry">
            <mxPoint x="545" y="260" as="sourcePoint" />
            <mxPoint x="655" y="260" as="targetPoint" />
          </mxGeometry>
        </mxCell>
        <mxCell id="ey4TMwuQdy21DPPwtNRA-24" value="&lt;b style=&quot;font-size: 16px;&quot;&gt;User&lt;/b&gt;" style="text;html=1;align=center;verticalAlign=middle;resizable=0;points=[];autosize=1;strokeColor=none;fillColor=none;fontSize=16;" parent="1" vertex="1">
          <mxGeometry x="10" y="309" width="60" height="30" as="geometry" />
        </mxCell>
        <mxCell id="ey4TMwuQdy21DPPwtNRA-25" value="&lt;b style=&quot;font-size: 16px;&quot;&gt;Vue&lt;/b&gt;" style="text;html=1;align=center;verticalAlign=middle;resizable=0;points=[];autosize=1;strokeColor=none;fillColor=none;fontSize=16;" parent="1" vertex="1">
          <mxGeometry x="244.2" y="309" width="50" height="30" as="geometry" />
        </mxCell>
        <mxCell id="ey4TMwuQdy21DPPwtNRA-26" value="&lt;b style=&quot;font-size: 16px;&quot;&gt;Spring&lt;/b&gt;" style="text;html=1;align=center;verticalAlign=middle;resizable=0;points=[];autosize=1;strokeColor=none;fillColor=none;fontSize=16;" parent="1" vertex="1">
          <mxGeometry x="452.15" y="309" width="70" height="30" as="geometry" />
        </mxCell>
        <mxCell id="ey4TMwuQdy21DPPwtNRA-27" value="&lt;b style=&quot;font-size: 16px;&quot;&gt;Database&lt;/b&gt;" style="text;html=1;align=center;verticalAlign=middle;resizable=0;points=[];autosize=1;strokeColor=none;fillColor=none;fontSize=16;" parent="1" vertex="1">
          <mxGeometry x="667" y="309" width="90" height="30" as="geometry" />
        </mxCell>
      </root>
    </mxGraphModel>
  </diagram>
  <diagram id="06vs4sOyOtMV6Q1f0x9e" name="Page-2">
    <mxGraphModel dx="954" dy="658" grid="1" gridSize="10" guides="1" tooltips="1" connect="1" arrows="1" fold="1" page="1" pageScale="1" pageWidth="850" pageHeight="1100" math="0" shadow="0">
      <root>
        <mxCell id="0" />
        <mxCell id="1" parent="0" />
      </root>
    </mxGraphModel>
  </diagram>
</mxfile>
